<?xml version="1.0" encoding="UTF-8" standalone="no"?>
<!-- Created with Inkscape (http://www.inkscape.org/) -->

<svg
   xmlns:dc="http://purl.org/dc/elements/1.1/"
   xmlns:cc="http://creativecommons.org/ns#"
   xmlns:rdf="http://www.w3.org/1999/02/22-rdf-syntax-ns#"
   xmlns:svg="http://www.w3.org/2000/svg"
   xmlns="http://www.w3.org/2000/svg"
   xmlns:sodipodi="http://sodipodi.sourceforge.net/DTD/sodipodi-0.dtd"
   xmlns:inkscape="http://www.inkscape.org/namespaces/inkscape"
   width="119.375"
   height="119.5625"
   id="svg4469"
   version="1.1"
   inkscape:version="0.48.4 r9939"
   sodipodi:docname="haradon.svg">
  <defs
     id="defs4471" />
  <sodipodi:namedview
     id="base"
     pagecolor="#ffffff"
     bordercolor="#666666"
     borderopacity="1.0"
     inkscape:pageopacity="0.0"
     inkscape:pageshadow="2"
     inkscape:zoom="1.2328358"
     inkscape:cx="52.553571"
     inkscape:cy="49.785139"
     inkscape:document-units="px"
     inkscape:current-layer="layer1"
     showgrid="false"
     fit-margin-top="0"
     fit-margin-left="0"
     fit-margin-right="0"
     fit-margin-bottom="0"
     inkscape:window-width="727"
     inkscape:window-height="425"
     inkscape:window-x="466"
     inkscape:window-y="203"
     inkscape:window-maximized="0" />
  <metadata
     id="metadata4474">
    <rdf:RDF>
      <cc:Work
         rdf:about="">
        <dc:format>image/svg+xml</dc:format>
        <dc:type
           rdf:resource="http://purl.org/dc/dcmitype/StillImage" />
        <dc:title></dc:title>
      </cc:Work>
    </rdf:RDF>
  </metadata>
  <g
     inkscape:label="Capa 1"
     inkscape:groupmode="layer"
     id="layer1"
     transform="translate(-248.875,-401.15625)">
    <path
       style="fill:none;stroke:#2a2a29;stroke-width:4.70900011;stroke-miterlimit:4;stroke-dasharray:none"
       inkscape:connector-curvature="0"
       id="path27"
       d="m 354.78342,461.02237 -92.65855,0 m 46.32945,-46.32909 0,92.65854 m 46.25433,-46.40421 11.87965,11.87999 m -11.87965,-11.68051 11.87965,-11.88 m -58.23461,-34.57381 11.87965,-11.87965 m -11.68051,11.87965 -11.88,-11.87965 m -34.23862,58.13398 -11.87965,11.87999 m 11.87965,-11.68051 -11.87965,-11.88 m 57.79913,57.9065 11.87965,11.88 m -11.68051,-11.88 -11.88,11.88"
       class="fil0 str0"
       sodipodi:nodetypes="cccccccccccccccccccc" />
    <path
       sodipodi:nodetypes="cccccccccccccccccccc"
       class="fil0 str0"
       d="m 354.78342,461.02237 -92.65855,0 m 46.32945,-46.32909 0,92.65854 m 46.25433,-46.40421 11.87965,11.87999 m -69.47045,-12.49164 11.87965,-11.88 m -0.64381,-33.76268 11.87965,-11.87965 m -11.68051,11.87965 -11.88,-11.87965 m -34.23862,58.13398 -11.87965,11.87999 m 11.87965,-11.68051 -11.87965,-11.88 m 57.79913,57.9065 11.87965,11.88 m -11.68051,-11.88 -11.88,11.88"
       id="path3051"
       inkscape:connector-curvature="0"
       style="fill:none;stroke:#2a2a29;stroke-width:4.70900011;stroke-miterlimit:4;stroke-dasharray:none" />
    <path
       sodipodi:nodetypes="cccccccccccccccccccc"
       class="fil0 str0"
       d="m 354.78342,461.02237 -92.65855,0 m 46.32945,-46.32909 0,92.65854 m 46.25433,-46.40421 11.87965,11.87999 m -11.87965,-11.68051 11.87965,-11.88 m -58.23461,-34.57381 11.87965,-11.87965 m -11.68051,11.87965 -11.88,-11.87965 m -34.23862,58.13398 -11.87965,11.87999 m 71.09273,-12.49165 -11.87965,-11.88 m -1.41395,58.71764 11.87965,11.88 m -11.68051,-11.88 -11.88,11.88"
       id="path3071"
       inkscape:connector-curvature="0"
       style="fill:none;stroke:#2a2a29;stroke-width:4.70900011;stroke-miterlimit:4;stroke-dasharray:none" />
    <path
       style="fill:none;stroke:#2a2a29;stroke-width:4.70900011;stroke-miterlimit:4;stroke-dasharray:none"
       inkscape:connector-curvature="0"
       id="path3075"
       d="m 354.78342,461.02237 -92.65855,0 m 46.32945,-46.32909 0,92.65854 m 46.25433,-46.40421 11.87965,11.87999 m -11.87965,-11.68051 11.87965,-11.88 m -57.42347,23.01699 11.87965,-11.87965 m -12.49165,-45.71115 -11.88,-11.87965 m -34.23862,58.13398 -11.87965,11.87999 m 71.09273,-12.49165 -11.87965,-11.88 m -1.41395,58.71764 11.87965,11.88 m -11.68051,-11.88 -11.88,11.88"
       class="fil0 str0"
       sodipodi:nodetypes="cccccccccccccccccccc" />
    <path
       sodipodi:nodetypes="cccccccccccccccccccc"
       class="fil0 str0"
       d="m 354.78342,461.02237 -92.65855,0 m 46.32945,-46.32909 0,92.65854 m 46.25433,-46.40421 11.87965,11.87999 m -11.87965,-11.68051 11.87965,-11.88 m -57.42347,23.01699 11.87965,-11.87965 m -12.49165,-45.71115 -11.88,-11.87965 m -34.23862,58.13398 -11.87965,11.87999 m 71.09273,-12.49165 -11.87965,-11.88 m -12.76988,12.48277 11.87965,11.88 m -0.32458,34.35487 -11.88,11.88"
       id="path3077"
       inkscape:connector-curvature="0"
       style="fill:none;stroke:#2a2a29;stroke-width:4.70900011;stroke-miterlimit:4;stroke-dasharray:none" />
  </g>
</svg>
