<?xml version="1.0" encoding="UTF-8" standalone="no"?>
<!-- Creator: CorelDRAW -->

<svg
   xmlns:dc="http://purl.org/dc/elements/1.1/"
   xmlns:cc="http://creativecommons.org/ns#"
   xmlns:rdf="http://www.w3.org/1999/02/22-rdf-syntax-ns#"
   xmlns:svg="http://www.w3.org/2000/svg"
   xmlns="http://www.w3.org/2000/svg"
   xmlns:sodipodi="http://sodipodi.sourceforge.net/DTD/sodipodi-0.dtd"
   xmlns:inkscape="http://www.inkscape.org/namespaces/inkscape"
   xml:space="preserve"
   width="112.03814"
   height="171.19016"
   style="fill-rule:evenodd"
   viewBox="0 0 31.619653 48.313667"
   id="svg2"
   version="1.1"
   inkscape:version="0.48.0 r9654"
   sodipodi:docname="tatja.svg"><metadata
   id="metadata14"><rdf:RDF><cc:Work
       rdf:about=""><dc:format>image/svg+xml</dc:format><dc:type
         rdf:resource="http://purl.org/dc/dcmitype/StillImage" /><dc:title /></cc:Work></rdf:RDF></metadata><sodipodi:namedview
   pagecolor="#ffffff"
   bordercolor="#666666"
   borderopacity="1"
   objecttolerance="10"
   gridtolerance="10"
   guidetolerance="10"
   inkscape:pageopacity="0"
   inkscape:pageshadow="2"
   inkscape:window-width="1254"
   inkscape:window-height="856"
   id="namedview12"
   showgrid="false"
   inkscape:zoom="1.9211057"
   inkscape:cx="92.44679"
   inkscape:cy="153.92829"
   inkscape:window-x="1797"
   inkscape:window-y="47"
   inkscape:window-maximized="0"
   inkscape:current-layer="svg2"
   fit-margin-top="0"
   fit-margin-left="0"
   fit-margin-right="0"
   fit-margin-bottom="0" />
 <defs
   id="defs4">
  <style
   type="text/css"
   id="style6">
   
    .str0 {stroke:#373435;stroke-width:2}
    .fil0 {fill:none}
   
  </style>
 </defs>
 <g
   id="Layer_x0020_1"
   transform="translate(-71.040082,-130.17264)">
  <metadata
   id="CorelCorpID_0Corel-Layer" />
  <path
   class="fil0 str0"
   d="m 73.293504,149.85247 c -4.446657,14.25939 9.682581,11.14514 10.168512,14.22307 1.195546,5.73447 1.374126,9.69657 0.32359,11.4557 -0.533043,0.89261 -4.027522,1.21316 -5.086092,2.38122 m 20.685348,-28.63481 c 5.431138,13.91422 -8.881038,11.79381 -9.150974,14.89814 -0.792364,5.80391 -0.694006,9.76883 0.476807,11.4503 0.594043,0.8533 4.102411,0.92911 5.239882,2.02045 m -5.866003,-18.3762 10.297286,-25.8718 m -2.252631,0.0645 0.392168,4.60986 m 0.02749,0.003 3.537003,-2.98238 m -5.852174,3.28135 0.39211,4.60986 m 0.02756,0.003 3.536944,-2.98238 m -5.951736,3.19665 0.392168,4.60992 m 0.02756,0.003 3.536939,-2.98238 m -6.273543,4.22641 0.392163,4.60987 m 0.02756,0.003 3.536947,-2.98238 m -8.645071,7.90275 -0.02531,-27.84571 m -2.068247,0.89484 2.072839,4.13622 m 0.02651,-0.008 2.179688,-4.08089 m -4.219128,5.21665 2.07278,4.1362 m 0.02657,-0.008 2.17963,-4.08089 m -4.343021,5.17492 2.072838,4.13621 m 0.02651,-0.008 2.179688,-4.08088 m -4.260215,6.25059 2.07278,4.13621 m 0.02657,-0.008 2.179688,-4.08089 m -5.818316,10.69484 -10.297225,-25.8718 m 2.252624,0.0646 -0.392165,4.60992 m -0.02748,0.003 -3.537001,-2.98238 m 5.852173,3.28129 -0.392165,4.60992 m -0.02748,0.003 -3.537001,-2.98238 m 5.951736,3.19664 -0.392165,4.60993 m -0.02748,0.003 -3.537,-2.98238 m 6.273546,4.22641 -0.392107,4.60993 m -0.02754,0.003 -3.536944,-2.98238"
   id="path10"
   inkscape:connector-curvature="0"
   style="fill:none;stroke:#373435;stroke-width:1.14768744" />
 </g>
</svg>